<svg width="546" height="486" viewBox="0 0 546 486" fill="none" xmlns="http://www.w3.org/2000/svg">
<path d="M272.756 484.785C406.159 484.785 514.304 376.534 514.304 243C514.304 109.466 406.159 1.21484 272.756 1.21484C139.353 1.21484 31.2083 109.466 31.2083 243C31.2083 376.534 139.353 484.785 272.756 484.785Z" fill="#003682"/>
<path d="M272.756 485.696C139.065 485.696 30.298 376.824 30.298 243C30.298 109.176 139.065 0.303711 272.756 0.303711C406.447 0.303711 515.214 109.176 515.214 243C515.214 376.824 406.449 485.696 272.756 485.696ZM272.756 2.12621C140.069 2.12621 32.1187 110.182 32.1187 243C32.1187 375.818 140.069 483.874 272.756 483.874C405.444 483.874 513.394 375.818 513.394 243C513.394 110.182 405.445 2.12621 272.756 2.12621Z" fill="#0055DC"/>
<path d="M231.614 121.257L84.946 91.5722L85.1876 90.3815L231.734 120.054L308.154 120.042L459.564 89.373L459.805 90.5638L308.276 121.245L231.614 121.257Z" fill="#FF6633"/>
<path d="M231.614 122.883L80.6528 97.0275L80.8568 95.8295L231.716 121.676L308.155 121.668L463.85 94.9839L464.054 96.1819L308.256 122.874L231.614 122.883Z" fill="#FF6B34"/>
<path d="M231.614 124.508L76.2855 102.741L76.4542 101.538L231.698 123.3L308.154 123.293L468.408 100.823L468.575 102.027L308.239 124.502L231.614 124.508Z" fill="#FE7135"/>
<path d="M231.614 126.134L71.9862 108.734L72.1161 107.526L231.68 124.923L308.154 124.919L472.559 106.992L472.689 108.199L308.22 126.13L231.614 126.134Z" fill="#FE7636"/>
<path d="M231.614 127.76L68.0146 115.022L68.1093 113.81L231.662 126.547L308.154 126.545L476.693 113.418L476.788 114.629L308.202 127.759L231.614 127.76Z" fill="#FE7C37"/>
<path d="M231.614 129.385L64.0467 121.557L64.1037 120.343L231.642 128.172L308.154 128.17L480.836 120.102L480.893 121.315L308.184 129.385H231.614Z" fill="#FD8138"/>
<path d="M231.614 131.011L60.2791 128.343L60.2973 127.128L231.624 129.796H308.155L484.981 127.042L485 128.257L308.164 131.011H231.614Z" fill="#FD8739"/>
<path d="M488.711 135.45L308.146 132.637H231.614L56.6862 135.362L56.6667 134.147L231.604 131.422H308.155L488.73 134.235L488.711 135.45Z" fill="#FD8C3B"/>
<path d="M492.026 142.855L308.127 134.262H231.614L53.0921 142.605L53.035 141.391L231.585 133.049L308.155 133.047L492.083 141.641L492.026 142.855Z" fill="#FD923C"/>
<path d="M495.542 150.484L308.107 135.887L231.614 135.888L49.8476 150.045L49.7529 148.834L231.567 134.675L308.155 134.673L495.637 149.272L495.542 150.484Z" fill="#FC973D"/>
<path d="M498.477 158.268L308.09 137.51L231.614 137.514L46.8119 157.666L46.6808 156.458L231.549 136.302L308.155 136.299L498.608 157.061L498.477 158.268Z" fill="#FC9D3E"/>
<path d="M501.392 166.233L308.071 139.134L231.614 139.139L44.1209 165.428L43.9521 164.224L231.529 137.93L308.155 137.924L501.559 165.03L501.392 166.233Z" fill="#FCA23F"/>
<path d="M503.954 174.321L308.053 140.758L231.614 140.766L41.601 173.329L41.397 172.131L231.512 139.56L308.154 139.551L504.158 173.123L503.954 174.321Z" fill="#FBA840"/>
<path d="M506.079 182.478L308.034 142.38L231.614 142.392L39.4914 181.305L39.2486 180.114L231.493 141.189L308.155 141.177L506.321 181.288L506.079 182.478Z" fill="#FBAD41"/>
<path d="M308.85 160.945H231.51V112.367H308.85V160.945ZM233.937 158.515H306.422V114.797H233.937V158.515Z" fill="#0055DC"/>
<path d="M285.04 113.582H255.275V159.73H285.04V113.582Z" fill="#F6821F"/>
<path d="M285.95 160.641H254.365V112.67H285.95V160.641ZM256.185 158.819H284.13V114.493H256.185V158.819Z" fill="#0055DC"/>
<path d="M255.291 113.582H232.724V159.73H255.291V113.582Z" fill="#FF6633"/>
<path d="M256.201 160.641H231.813V112.67H256.201V160.641ZM233.634 158.819H254.38V114.493H233.634V158.819Z" fill="#0055DC"/>
<path d="M307.623 113.582H285.056V159.73H307.623V113.582Z" fill="#FBAD41"/>
<path d="M308.532 160.641H284.144V112.67H308.532V160.641ZM285.965 158.819H306.711V114.493H285.965V158.819Z" fill="#0055DC"/>
<path d="M307.636 159.731L232.726 159.744L201.509 405.058H339.439L307.636 159.731Z" fill="#C5EBF5"/>
<path d="M340.475 405.969H200.475L231.925 158.838L308.436 158.826L340.475 405.969ZM202.543 404.147H338.403L306.835 160.643L233.527 160.655L202.543 404.147Z" fill="#0055DC"/>
<path d="M217.32 403.986L246.688 175.609L293.708 175.6L323.308 403.986H217.32Z" fill="white"/>
<path d="M316.923 160.652H223.436V147.082H316.923V160.652ZM225.256 158.83H315.102V148.905H225.256V158.83Z" fill="#0055DC"/>
<path d="M316.013 101.841H224.346V113.589H316.013V101.841Z" fill="#6ECCE5"/>
<path d="M316.923 114.499H223.436V100.93H316.923V114.499ZM225.256 112.677H315.102V102.753H225.256V112.677Z" fill="#0055DC"/>
<path d="M316.013 101.854H224.346L270.293 70.5747L316.013 101.854Z" fill="#0055DC"/>
<path d="M316.013 102.765H224.346L223.834 101.099L269.781 69.8213H270.807L316.526 101.1L316.013 102.765ZM227.303 100.942H313.067L270.292 71.6778L227.303 100.942Z" fill="#0055DC"/>
<path d="M271.507 46.6606H269.08V70.697H271.507V46.6606Z" fill="#0055DC"/>
<path d="M314.897 208.624L225.591 208.613L231.923 158.819H308.442L314.897 208.624ZM227.658 206.793L312.825 206.804L306.835 160.644H233.521L227.658 206.793Z" fill="#0055DC"/>
<path d="M330.126 326.16H210.631L218.429 264.901H322.209L330.126 326.16ZM212.698 324.338H328.054L320.602 266.724H220.031L212.698 324.338Z" fill="#0055DC"/>
<path d="M272.756 485.696C238.853 485.665 205.332 478.531 174.348 464.753C143.364 450.975 115.605 430.859 92.854 405.698L91.48 404.176H454.034L452.658 405.698C429.908 430.859 402.148 450.975 371.164 464.753C340.181 478.531 306.659 485.665 272.756 485.696ZM95.5924 405.992C118.13 430.54 145.514 450.136 176.009 463.541C206.505 476.946 239.449 483.868 272.756 483.868C306.063 483.868 339.007 476.946 369.503 463.541C399.999 450.136 427.382 430.54 449.92 405.992H95.5924Z" fill="#6ECCE5"/>
<path d="M409.878 422.252H259.856V424.075H409.878V422.252Z" fill="#6ECCE5"/>
<path d="M341.504 456.991H212.618V458.813H341.504V456.991Z" fill="#6ECCE5"/>
<path d="M318.843 439.966H158.253V441.788H318.843V439.966Z" fill="#6ECCE5"/>
<path d="M272.756 486C138.897 486 29.9945 376.99 29.9945 243C29.9945 109.01 138.897 0 272.756 0C406.615 0 515.518 109.01 515.518 243C515.518 376.99 406.616 486 272.756 486ZM272.756 2.43C140.236 2.43 32.4221 110.349 32.4221 243C32.4221 375.651 140.236 483.57 272.756 483.57C405.276 483.57 513.09 375.65 513.09 243C513.09 110.35 405.277 2.43 272.756 2.43Z" fill="#0055DC"/>
<path d="M128.318 248.344H77.4423V250.166H128.318V248.344Z" fill="#E2F5FA"/>
<path d="M70.3488 248.344H61.7477V250.166H70.3488V248.344Z" fill="#E2F5FA"/>
<path d="M123.079 230.47H115.063V232.292H123.079V230.47Z" fill="#E2F5FA"/>
<path d="M138.692 239.169H93.467V237.347H138.692C141.649 237.347 144.558 236.6 147.149 235.175C149.741 233.751 151.931 231.695 153.518 229.197C155.104 226.7 156.035 223.842 156.225 220.889C156.415 217.935 155.857 214.982 154.603 212.302C153.349 209.622 151.439 207.302 149.051 205.557C146.663 203.812 143.874 202.698 140.941 202.319C138.009 201.941 135.029 202.309 132.276 203.39C129.524 204.47 127.089 206.229 125.196 208.503L123.798 207.335C125.887 204.826 128.574 202.885 131.612 201.692C134.65 200.499 137.939 200.093 141.175 200.511C144.411 200.929 147.49 202.158 150.125 204.083C152.761 206.009 154.868 208.57 156.252 211.528C157.636 214.485 158.252 217.745 158.043 221.005C157.833 224.264 156.806 227.418 155.055 230.174C153.304 232.93 150.886 235.2 148.026 236.772C145.166 238.344 141.955 239.168 138.692 239.168V239.169Z" fill="#E2F5FA"/>
<path d="M132.896 232.342C130.712 232.342 130.215 232.3 130.105 232.281L130.393 230.482C130.406 230.482 131.391 230.572 138.203 230.47C139.953 230.472 141.674 230.032 143.209 229.191C144.743 228.35 146.04 227.134 146.98 225.657C147.92 224.181 148.473 222.49 148.586 220.743C148.7 218.995 148.37 217.247 147.629 215.661C146.888 214.075 145.759 212.702 144.346 211.669C142.933 210.636 141.283 209.977 139.548 209.752C137.813 209.528 136.05 209.746 134.421 210.385C132.793 211.025 131.352 212.066 130.232 213.411L128.834 212.244C130.149 210.663 131.842 209.44 133.755 208.688C135.668 207.936 137.74 207.68 139.778 207.943C141.817 208.206 143.756 208.98 145.416 210.193C147.076 211.405 148.404 213.018 149.276 214.881C150.148 216.744 150.536 218.797 150.404 220.85C150.273 222.903 149.625 224.89 148.523 226.626C147.42 228.362 145.897 229.791 144.095 230.782C142.294 231.772 140.272 232.291 138.216 232.291C135.792 232.329 134.092 232.342 132.896 232.342Z" fill="#E2F5FA"/>
<path d="M165.057 323.043H125.616V324.865H165.057V323.043Z" fill="#E2F5FA"/>
<path d="M120.116 323.043H113.448V324.865H120.116V323.043Z" fill="#E2F5FA"/>
<path d="M160.995 309.186H154.783V311.009H160.995V309.186Z" fill="#E2F5FA"/>
<path d="M173.103 316.34H138.039V314.517H173.103C175.36 314.517 177.581 313.947 179.56 312.859C181.539 311.771 183.212 310.2 184.423 308.293C185.635 306.386 186.345 304.204 186.49 301.948C186.635 299.693 186.209 297.438 185.251 295.391C184.293 293.345 182.835 291.573 181.011 290.241C179.188 288.908 177.058 288.058 174.819 287.769C172.579 287.48 170.304 287.761 168.202 288.586C166.1 289.411 164.24 290.754 162.795 292.491L161.395 291.323C163.037 289.351 165.149 287.826 167.536 286.889C169.923 285.952 172.508 285.633 175.051 285.961C177.594 286.29 180.012 287.256 182.083 288.769C184.154 290.282 185.81 292.294 186.898 294.618C187.986 296.942 188.47 299.504 188.306 302.065C188.141 304.626 187.334 307.104 185.959 309.27C184.583 311.436 182.684 313.22 180.436 314.455C178.189 315.691 175.667 316.339 173.103 316.34Z" fill="#E2F5FA"/>
<path d="M168.6 311.04C167.379 311.04 166.609 311.024 166.407 310.991L166.696 309.192C166.714 309.192 167.546 309.257 172.714 309.181C174.036 309.183 175.338 308.852 176.498 308.217C177.658 307.582 178.639 306.664 179.35 305.548C180.061 304.432 180.479 303.155 180.565 301.834C180.651 300.513 180.403 299.192 179.843 297.993C179.283 296.794 178.43 295.756 177.363 294.975C176.295 294.194 175.048 293.696 173.737 293.526C172.426 293.356 171.093 293.521 169.862 294.004C168.631 294.487 167.542 295.274 166.696 296.291L165.298 295.123C166.34 293.871 167.681 292.903 169.196 292.308C170.712 291.712 172.353 291.51 173.967 291.718C175.582 291.927 177.117 292.54 178.432 293.501C179.747 294.461 180.799 295.739 181.489 297.215C182.179 298.69 182.487 300.317 182.382 301.943C182.278 303.569 181.765 305.142 180.891 306.517C180.017 307.892 178.811 309.024 177.384 309.809C175.957 310.593 174.355 311.004 172.727 311.003C171.065 311.033 169.661 311.04 168.6 311.04Z" fill="#E2F5FA"/>
<path d="M429.196 280.326H378.321V282.149H429.196V280.326Z" fill="#E2F5FA"/>
<path d="M371.228 280.326H362.625V282.149H371.228V280.326Z" fill="#E2F5FA"/>
<path d="M423.957 262.452H415.942V264.275H423.957V262.452Z" fill="#E2F5FA"/>
<path d="M439.571 271.152H394.345V269.329H439.571C442.528 269.329 445.436 268.582 448.028 267.157C450.619 265.733 452.81 263.676 454.396 261.179C455.982 258.681 456.913 255.824 457.103 252.87C457.292 249.917 456.734 246.964 455.48 244.284C454.226 241.604 452.316 239.284 449.928 237.539C447.54 235.794 444.751 234.681 441.819 234.302C438.887 233.923 435.906 234.291 433.154 235.372C430.402 236.453 427.966 238.211 426.074 240.485L424.675 239.317C426.764 236.808 429.452 234.867 432.489 233.674C435.527 232.481 438.816 232.075 442.052 232.493C445.289 232.911 448.367 234.14 451.003 236.066C453.638 237.991 455.745 240.552 457.13 243.509C458.514 246.467 459.13 249.727 458.92 252.986C458.711 256.246 457.684 259.4 455.933 262.156C454.182 264.912 451.764 267.181 448.904 268.754C446.044 270.326 442.834 271.152 439.571 271.152Z" fill="#E2F5FA"/>
<path d="M433.775 264.323C431.59 264.323 431.094 264.282 430.983 264.264L431.272 262.465C431.286 262.465 432.271 262.554 439.081 262.452C440.83 262.455 442.552 262.015 444.086 261.174C445.62 260.333 446.918 259.117 447.858 257.641C448.798 256.164 449.35 254.473 449.464 252.726C449.578 250.979 449.248 249.231 448.507 247.645C447.766 246.058 446.637 244.685 445.225 243.652C443.812 242.619 442.162 241.96 440.427 241.735C438.692 241.51 436.929 241.728 435.3 242.367C433.672 243.007 432.231 244.047 431.111 245.393L429.713 244.225C431.028 242.644 432.721 241.421 434.634 240.669C436.547 239.918 438.619 239.661 440.658 239.925C442.696 240.188 444.636 240.962 446.296 242.175C447.956 243.388 449.284 245 450.155 246.864C451.027 248.727 451.415 250.78 451.283 252.833C451.151 254.886 450.504 256.873 449.4 258.609C448.297 260.345 446.774 261.774 444.972 262.764C443.171 263.754 441.148 264.273 439.093 264.272C436.671 264.311 434.971 264.323 433.775 264.323Z" fill="#E2F5FA"/>
</svg>
