<svg width="1331" height="1461" viewBox="0 0 1731 1861" fill="none" xmlns="http://www.w3.org/2000/svg">
<path d="M1458.64 695.254C1530.79 919.311 1313.61 1054.22 1237.9 1126.15C1128.28 1230.34 1142.55 1331.42 1153.35 1468.91C1168.91 1666.92 607.218 2053.8 271.982 1170.68C56.562 603.189 382.505 164.766 650.265 270.855C1117.71 456.058 1310.3 234.634 1458.64 695.254Z" fill="url(#paint0_linear_152_370)"/>
<path d="M1419.93 730.11C1465.68 917.897 1252.44 980.041 1171.57 1041.77C1054.67 1131.12 1095.55 1278.25 1042.4 1386.41C851.441 1775.17 510.479 1459.7 454.337 1204.98C368.226 814.229 439.704 329.168 693.167 432.085C946.117 534.833 1325.87 344.052 1419.93 730.11Z" fill="url(#paint1_linear_152_370)"/>
<path d="M1300.42 689.383C1352.54 857.156 1176.13 918.155 1114.65 976.361C986.773 1097.48 992.767 1454.47 891.067 1430.41C505.274 1339.14 390.752 731.189 571.357 634.029C691.218 569.555 1193.27 344.469 1300.42 689.383Z" fill="url(#paint2_linear_152_370)"/>
<path d="M1179.68 767.924C1217 925.101 1068.71 975.415 1003.18 1000.29C883.38 1045.77 930.739 1272.53 824.923 1277.77C643.112 1286.77 467.036 914.114 574.022 722.428C633.24 616.378 1102.93 444.727 1179.68 767.924Z" fill="url(#paint3_linear_152_370)"/>
<path d="M1094.67 750.489C1119.81 860.328 1014.53 920.241 961.96 916.023C849.553 907.062 608.048 849.568 674.813 758.806C723.752 692.288 1042.9 524.727 1094.67 750.489Z" fill="url(#paint4_linear_152_370)"/>
<path d="M1013.46 763.335C1026.68 820.954 971.418 852.405 943.84 850.199C884.857 845.484 759.325 841.902 783.114 754.553C795.46 709.307 986.337 644.871 1013.46 763.335Z" fill="url(#paint5_linear_152_370)"/>
<defs>
<linearGradient id="paint0_linear_152_370" x1="560.185" y1="236.13" x2="1163.31" y2="1608.99" gradientUnits="userSpaceOnUse">
<stop stop-color="#9682D2" stop-opacity="0"/>
<stop offset="1" stop-color="#9682D2" stop-opacity="0.1"/>
</linearGradient>
<linearGradient id="paint1_linear_152_370" x1="414.243" y1="1111.96" x2="1423.63" y2="728.79" gradientUnits="userSpaceOnUse">
<stop stop-color="#E5018B"/>
<stop offset="0.19" stop-color="#76218E"/>
<stop offset="0.43" stop-color="#841D8D"/>
<stop offset="0.69" stop-color="#4C2F8E"/>
<stop offset="0.96" stop-color="#E4018B"/>
<stop offset="0.99" stop-color="#DB038B"/>
</linearGradient>
<linearGradient id="paint2_linear_152_370" x1="620.382" y1="1229.82" x2="1402.32" y2="849.627" gradientUnits="userSpaceOnUse">
<stop offset="0.02" stop-color="#C30A8C"/>
<stop offset="0.22" stop-color="#E7018B"/>
<stop offset="0.36" stop-color="#851D8D"/>
<stop offset="0.57" stop-color="#45308E"/>
<stop offset="0.82" stop-color="#DD038B"/>
<stop offset="0.99" stop-color="#C20A8C"/>
</linearGradient>
<linearGradient id="paint3_linear_152_370" x1="571.841" y1="1028.18" x2="1191.92" y2="792.801" gradientUnits="userSpaceOnUse">
<stop offset="0.38" stop-color="#E9018B"/>
<stop offset="1" stop-color="#472F8E"/>
</linearGradient>
<linearGradient id="paint4_linear_152_370" x1="691.427" y1="871.014" x2="1085.73" y2="721.334" gradientUnits="userSpaceOnUse">
<stop offset="0.22" stop-color="#CC078C"/>
<stop offset="0.36" stop-color="#E1018B"/>
<stop offset="0.56" stop-color="#6A2B8D"/>
<stop offset="0.79" stop-color="#6F238E"/>
<stop offset="0.99" stop-color="#E7018B"/>
</linearGradient>
<linearGradient id="paint5_linear_152_370" x1="1005.66" y1="739.922" x2="793.564" y2="820.433" gradientUnits="userSpaceOnUse">
<stop stop-color="#CD068C"/>
<stop offset="0.43" stop-color="#E3018B"/>
<stop offset="0.89" stop-color="#841D8D"/>
<stop offset="0.99" stop-color="#42308F"/>
</linearGradient>
</defs>
</svg>
